<?xml version="1.0" standalone="no"?>
<!DOCTYPE svg PUBLIC "-//W3C//DTD SVG 20010904//EN"
 "http://www.w3.org/TR/2001/REC-SVG-20010904/DTD/svg10.dtd">
<svg version="1.0" xmlns="http://www.w3.org/2000/svg"
 width="752.000000pt" height="752.000000pt" viewBox="0 0 752.000000 752.000000"
 preserveAspectRatio="xMidYMid meet">
<metadata>
Created by potrace 1.14, written by Peter Selinger 2001-2017
</metadata>
<g transform="translate(0.000000,752.000000) scale(0.100000,-0.100000)"
fill="#000000" stroke="none">
<path d="M2430 5699 c-244 -17 -424 -152 -512 -385 l-23 -59 -3 -1460 c-2
-1047 0 -1477 8 -1520 6 -33 30 -98 52 -144 68 -143 195 -250 353 -297 56 -17
117 -19 884 -19 l823 0 387 392 c212 215 437 443 498 506 l113 114 0 295 0
296 -87 -3 c-49 -2 -90 -4 -93 -4 -3 -1 -5 -102 -5 -226 l1 -225 -296 0 c-162
-1 -320 -2 -351 -4 -110 -8 -216 -84 -267 -194 l-27 -57 -2 -340 c-1 -187 -2
-344 -2 -348 -1 -4 -344 -6 -763 -5 l-763 3 -60 31 c-104 55 -181 152 -205
258 -12 54 -16 2817 -4 2897 18 121 117 245 232 290 l57 23 1080 0 1080 1 67
-32 c103 -49 188 -147 212 -245 l6 -27 96 0 95 0 -6 32 c-8 39 -38 122 -57
157 -75 141 -240 263 -393 291 -66 13 -1957 19 -2125 8z m2260 -2932 c0 -1
-139 -141 -309 -311 l-310 -310 2 265 c2 260 2 265 25 294 49 63 61 65 339 65
139 0 253 -1 253 -3z"/>
<path d="M4793 5084 c-300 -48 -549 -275 -630 -574 -27 -101 -24 -312 6 -409
79 -254 262 -447 501 -526 420 -138 858 85 996 509 24 70 27 99 28 216 1 179
-17 255 -90 389 -160 292 -479 447 -811 395z m221 -139 c91 -11 159 -38 258
-103 89 -57 167 -145 217 -245 125 -249 76 -540 -123 -737 -143 -142 -345
-207 -546 -177 -191 29 -381 169 -469 347 -23 47 -44 99 -47 115 -3 17 -9 47
-14 68 -4 21 -7 80 -5 131 6 161 69 303 189 421 104 102 205 153 356 179 74
12 90 12 184 1z"/>
<path d="M4883 4728 c-30 -14 -33 -33 -33 -195 0 -79 -3 -144 -7 -144 -5 -1
-69 -2 -143 -4 -74 -1 -145 -3 -156 -4 -32 -2 -58 -61 -43 -95 17 -37 50 -44
194 -44 72 0 136 -1 143 -1 9 -1 12 -39 12 -156 0 -142 2 -157 20 -175 27 -27
74 -26 100 2 18 20 20 35 20 175 0 115 3 153 13 154 6 0 71 1 142 1 72 0 142
4 157 10 54 20 57 102 4 125 -11 5 -87 9 -168 9 l-148 -1 0 156 c0 150 -1 156
-23 177 -25 24 -50 27 -84 10z"/>
<path d="M3553 4445 c-20 -14 -37 -57 -49 -124 -3 -12 -12 -53 -20 -90 -9 -36
-18 -75 -20 -86 -7 -36 -164 -728 -194 -855 -17 -69 -30 -139 -30 -155 1 -46
24 -69 67 -68 41 1 58 18 73 73 10 39 60 254 66 285 2 11 24 110 49 220 26
110 48 209 51 220 8 40 13 62 44 195 17 74 34 146 36 159 3 13 11 51 19 85 20
83 19 112 -5 136 -24 24 -57 26 -87 5z"/>
<path d="M2881 4005 l-246 -244 245 -244 c221 -221 248 -244 277 -243 41 2 73
31 73 68 0 25 -31 60 -190 220 -104 105 -190 194 -190 198 0 4 86 94 191 199
185 184 191 192 185 224 -3 17 -16 40 -27 50 -47 38 -58 31 -318 -228z"/>
<path d="M3700 4228 c-45 -49 -35 -66 168 -270 103 -103 187 -193 187 -199 0
-5 -84 -94 -187 -197 -108 -109 -189 -198 -193 -213 -12 -48 58 -95 104 -70
26 15 481 475 478 484 -1 5 -110 116 -242 248 -257 256 -270 265 -315 217z"/>
</g>
</svg>
